{"title":"Hunger Games:Catching Fire(2013)MPEG-4[DaScubaDude]","uid":14337151,"size":1463066093,"categoryP":"video","categoryS":"movies","magnet":"?xt=urn:btih:b9c88dfc9a68349d31511141adc6f2a8a0f0f774&amp;dn=Hunger+Games%3ACatching+Fire%282013%29MPEG-4%5BDaScubaDude%5D&amp;tr=udp%3A%2F%2Ftracker.leechers-paradise.org%3A6969&amp;tr=udp%3A%2F%2Fzer0day.ch%3A1337&amp;tr=udp%3A%2F%2Fopen.demonii.com%3A1337&amp;tr=udp%3A%2F%2Ftracker.coppersurfer.tk%3A6969&amp;tr=udp%3A%2F%2Fexodus.desync.com%3A6969","seeders":1,"leechers":0,"uploader":"dascuba","files":1,"time":1460723447,"description":"The Hunger Games: Catching Fire (2013)\r\nPG-13 | 2h 26min | Adventure, Sci-Fi, Thriller | 22 November 2013 (USA)\r\nKatniss Everdeen and Peeta Mellark become targets of the Capitol after their victory in the 74th Hunger Games sparks a rebellion in the Districts of Panem.\r\nDirector: Francis Lawrence\r\nWriters: Simon Beaufoy (screenplay), Michael Arndt (screenplay) (as Michael deBruyn) | \r\nStars: Jennifer Lawrence, Josh Hutcherson, Liam Hemsworth \r\n\r\n\r\nGeneral\r\nComplete name                            : Catching FireThe Hunger Games Catching Fire_Title20.mp4\r\nFormat                                   : MPEG-4\r\nFormat profile                           : Base Media\r\nCodec ID                                 : isom\r\nFile size                                : 1.36 GiB\r\nDuration                                 : 2h 26mn\r\nOverall bit rate                         : 1 335 Kbps\r\nMovie name                               : The_Hunger_Games_Catching_Fire\r\nGenre                                    : Science_Fiction\r\nWriting application                      : Lavf54.6.100\r\n\r\nVideo\r\nID                                       : 1\r\nFormat                                   : AVC\r\nFormat/Info                              : Advanced Video Codec\r\nFormat profile                           :   \r\nFormat settings, CABAC                   : No\r\nFormat settings, ReFrames                : 6 frames\r\nCodec ID                                 : avc1\r\nCodec ID/Info                            : Advanced Video Coding\r\nDuration                                 : 2h 26mn\r\nBit rate                                 : 1 200 Kbps\r\nWidth                                    : 720 pixels\r\nHeight                                   : 404 pixels\r\nDisplay aspect ratio                     : 16:9\r\nFrame rate mode                          : Constant\r\nFrame rate                               : 29.970 fps\r\nColor space                              : YUV\r\nChroma subsampling                       : 4:2:0\r\nBit depth                                : 8 bits\r\nScan type                                : Progressive\r\nBits/(Pixel*Frame)                       : 0.138\r\nStream size                              : 1.23 GiB (90%)\r\n\r\nAudio\r\nID                                       : 2\r\nFormat                                   : AAC\r\nFormat/Info                              : Advanced Audio Codec\r\nFormat profile                           : LC\r\nCodec ID                                 : 40\r\nDuration                                 : 2h 26mn\r\nBit rate mode                            : Constant\r\nBit rate                                 : 128 Kbps\r\nChannel(s)                               : 2 channels\r\nChannel positions                        : Front: L R\r\nSampling rate                            : 44.1 KHz\r\nCompression mode                         : Lossy\r\nStream size                              : 134 MiB (10%)","torrent":{"xt":"urn:btih:b9c88dfc9a68349d31511141adc6f2a8a0f0f774","amp;dn":"Hunger+Games%3ACatching+Fire%282013%29MPEG-4%5BDaScubaDude%5D","amp;tr":["udp%3A%2F%2Ftracker.leechers-paradise.org%3A6969","udp%3A%2F%2Fzer0day.ch%3A1337","udp%3A%2F%2Fopen.demonii.com%3A1337","udp%3A%2F%2Ftracker.coppersurfer.tk%3A6969","udp%3A%2F%2Fexodus.desync.com%3A6969"],"infoHash":"b9c88dfc9a68349d31511141adc6f2a8a0f0f774","infoHashBuffer":{"type":"Buffer","data":[185,200,141,252,154,104,52,157,49,81,17,65,173,198,242,168,160,240,247,116]},"announce":[],"urlList":[]}}